<svg width="249" height="214" viewBox="0 0 249 214" fill="none" xmlns="http://www.w3.org/2000/svg">
<path d="M46 80C46 35.8172 81.8172 0 126 0C170.183 0 206 35.8172 206 80V214H46V80Z" fill="url(#paint0_linear_404_7)"/>
<path fill-rule="evenodd" clip-rule="evenodd" d="M222 114.141V200H30V147.446C22.8636 147.032 16.814 146.242 12.0876 145.074C8.69089 144.235 5.94807 143.193 3.97163 141.936C1.99633 140.68 0.729687 139.169 0.414202 137.38C0.117037 135.694 0.697726 133.984 1.95844 132.285C3.21716 130.589 5.18469 128.859 7.76189 127.1C12.8625 123.617 20.4558 119.949 30 116.16V96C30 42.9807 72.9807 0 126 0C174.961 0 215.361 36.6527 221.259 84.0164C229.393 84.5728 235.907 85.5595 240.525 87.0717C245.14 88.5831 248.069 90.6895 248.586 93.6204C248.901 95.4096 248.228 97.2624 246.801 99.1187C245.374 100.976 243.153 102.893 240.248 104.843C235.758 107.858 229.573 110.994 222 114.141ZM221 114.554V199H31V147.502C33.8351 147.65 36.8354 147.741 39.9865 147.774C63.1302 148.019 94.5173 145.157 128.668 139.135C162.818 133.114 193.291 125.068 214.955 116.923C217.053 116.134 219.07 115.344 221 114.554ZM221.38 85.0271C229.398 85.5839 235.749 86.5601 240.213 88.022C244.799 89.5238 247.191 91.4684 247.601 93.794C247.849 95.2002 247.343 96.772 246.008 98.5094C244.674 100.246 242.552 102.092 239.69 104.013C235.347 106.929 229.36 109.98 222 113.058V96C222 92.2894 221.79 88.628 221.38 85.0271ZM30 117.237C20.6523 120.964 13.2697 124.55 8.32576 127.925C5.79261 129.655 3.92637 131.311 2.76149 132.881C1.5986 134.448 1.16586 135.884 1.39901 137.206C1.64696 138.612 2.65962 139.916 4.50835 141.092C6.35596 142.268 8.98191 143.277 12.3275 144.103C16.9659 145.249 22.9308 146.032 30 146.445V117.237ZM31 146.5V96C31 43.533 73.533 1 126 1C178.467 1 221 43.5329 221 96V113.473C218.966 114.31 216.832 115.149 214.603 115.987C193.012 124.105 162.602 132.136 128.494 138.151C94.3854 144.165 63.0623 147.018 39.9971 146.775C36.8365 146.741 33.8329 146.65 31 146.5Z" fill="white"/>
<path d="M126 49C126 49 129.311 79.8996 142.205 92.7946C155.1 105.689 186 109 186 109C186 109 155.1 112.311 142.205 125.205C129.311 138.1 126 169 126 169C126 169 122.689 138.1 109.795 125.205C96.8996 112.311 66 109 66 109C66 109 96.8996 105.689 109.795 92.7946C122.689 79.8996 126 49 126 49Z" fill="white" fill-opacity="0.35"/>
<defs>
<linearGradient id="paint0_linear_404_7" x1="73" y1="21" x2="134.5" y2="185.5" gradientUnits="userSpaceOnUse">
<stop stop-color="white" stop-opacity="0.56"/>
<stop offset="1" stop-color="white" stop-opacity="0"/>
</linearGradient>
</defs>
</svg>
